<svg width="79" height="89" viewBox="0 0 79 89" fill="none" xmlns="http://www.w3.org/2000/svg">
<path d="M1 44.5588H16.6331C18.29 44.5588 19.6331 45.9019 19.6331 47.5588V82.1175C19.6331 84.3267 17.8422 86.1175 15.6331 86.1175H1V44.5588Z" fill="#B2EFE8" stroke="black" stroke-width="2"/>
<circle cx="14.9017" cy="53.8753" r="1.14628" fill="#0E101A"/>
<line x1="14.7554" y1="60.6068" x2="14.7554" y2="76.9473" stroke="black" stroke-width="2" stroke-linecap="round"/>
<path d="M33.5 87L22.5 85L20.5 82.5V46.5L24.5 45L33.5 42.5L41 38.5L49 30L50 26L54 19H58.5L62 24L60.5 34L58.5 40.5L55 41.5H67.5L75.5 42.5L78 48L75.5 53L72.5 55L75.5 56L78 60.5L75.5 65.5L72 66.5L70 67C70.8333 68 72.5 70.1 72.5 70.5V74.5L70 77.5L65 78.5H68L70 80.5L70.5 85L67.5 87H33.5Z" fill="white"/>
<path d="M58.2061 41.4228C61.4891 36.9942 62.5835 24.7304 61.4891 22.0052C60.3948 19.2799 52.7343 13.148 48.7217 27.4557C45.5116 38.9019 28.6586 44.4887 20.6333 45.8513V84" stroke="black" stroke-width="2"/>
<path d="M48.144 41.2662H71.0697C74.8682 41.2662 77.9474 44.3455 77.9474 48.1439V48.1439C77.9474 51.9424 74.8682 55.0216 71.0697 55.0216H60.8105" stroke="black" stroke-width="2"/>
<path d="M61.8994 55.0216H72.216C75.3813 55.0216 77.9474 57.5877 77.9474 60.753V60.753C77.9474 63.9184 75.3813 66.4844 72.216 66.4844H61.8994" stroke="black" stroke-width="2"/>
<path d="M61.8994 66.4844H67.6308C70.7962 66.4844 73.3622 69.0505 73.3622 72.2159V72.2159C73.3622 75.3812 70.7962 77.9473 67.6308 77.9473H61.8994" stroke="black" stroke-width="2"/>
<path d="M59.289 77.9473H66.4846C69.0169 77.9473 71.0698 80.0001 71.0698 82.5324V82.5324C71.0698 85.0647 69.0169 87.1175 66.4846 87.1175H59.289H35.3593C30.6961 86.7648 21.2223 85.5656 20.6333 83.5905" stroke="black" stroke-width="2"/>
<line x1="35.3882" y1="19.6331" x2="40.2659" y2="19.6331" stroke="black" stroke-width="2" stroke-linecap="round"/>
<line x1="1" y1="-1" x2="8.17027" y2="-1" transform="matrix(-1 0 0 1 77.9468 20.6331)" stroke="black" stroke-width="2" stroke-linecap="round"/>
<line x1="41.401" y1="5.76601" x2="45.8674" y2="10.5829" stroke="black" stroke-width="2" stroke-linecap="round"/>
<line x1="1" y1="-1" x2="7.56894" y2="-1" transform="matrix(-0.67992 0.733286 0.733286 0.67992 71.4077 5.71265)" stroke="black" stroke-width="2" stroke-linecap="round"/>
<line x1="56.0215" y1="1" x2="56.0215" y2="8.17027" stroke="black" stroke-width="2" stroke-linecap="round"/>
</svg>
