<svg width="80" height="80" viewBox="0 0 80 80" fill="none" xmlns="http://www.w3.org/2000/svg">
<path d="M36.2416 71.0007C31.1198 70.4197 26.081 68.6803 21.5311 65.7502L12.7095 68.1552C10.161 69.0437 3.33013 71.431 1.75862 69.7871C0.046102 67.9957 2.7059 63.1143 4.04715 60.4986L8.93587 51.2611C6.5119 46.0133 5.45619 40.2372 5.86716 34.4712C6.94922 19.0378 18.2226 6.23122 33.3979 3.19977C48.5733 0.168322 63.9016 7.66087 70.8318 21.4976C73.1682 26.1626 74.3555 31.1601 74.4615 36.1319" fill="white"/>
<path d="M36.2416 71.0007C31.1198 70.4197 26.081 68.6803 21.5311 65.7502L12.7095 68.1552C10.161 69.0437 3.33013 71.431 1.75862 69.7871C0.0461023 67.9957 2.7059 63.1143 4.04715 60.4986L8.93587 51.2611C6.5119 46.0133 5.45619 40.2372 5.86716 34.4712C6.94922 19.0378 18.2226 6.23122 33.3979 3.19977C48.5733 0.168322 63.9016 7.66087 70.8318 21.4976C73.1682 26.1626 74.3555 31.1601 74.4615 36.1319" stroke="#0E101A" stroke-width="2" stroke-linecap="round"/>
<path d="M65.9058 42.3194C58.2471 39.9362 49.5641 43.3952 45.2421 50.1467C40.9202 56.8982 41.6516 65.7042 47.0283 71.6521C52.405 77.6 61.0988 79.2204 68.2596 75.6093L72.6769 77.3258C73.9425 77.9214 77.3345 79.5209 78.2337 78.7593C79.2135 77.9294 78.1068 75.2711 77.557 73.8512L75.5373 68.8285C77.0711 66.2568 77.9282 63.3389 78.0286 60.3468C78.3068 52.339 73.5645 44.7025 65.9058 42.3194Z" fill="#CEF5EC" stroke="#0E101A" stroke-width="2"/>
</svg>
